<svg width="21" height="21" viewBox="0 0 21 21" fill="none" xmlns="http://www.w3.org/2000/svg">
<path d="M0.1112 0.956691C-0.148633 0.619384 0.0760872 0.0853138 0.483393 0.00801419C2.22498 -0.111449 3.92443 1.11832 4.42302 2.78377C4.64774 3.60596 4.83735 4.4422 5.05505 5.27141C10.1534 5.27141 15.2517 5.27141 20.3501 5.27141C20.7644 5.22925 21.1085 5.67899 20.9681 6.07252C20.4484 8.14555 19.9358 10.2186 19.4091 12.2916C19.086 13.5003 17.9063 14.4138 16.6492 14.4068C13.8332 14.4068 11.0172 14.4068 8.20114 14.4068C7.65338 14.3857 7.14776 14.8636 7.16181 15.4187C7.12669 15.9598 7.59018 16.4588 8.13091 16.4658C10.7784 16.4799 13.4259 16.4658 16.0734 16.4658C16.7475 16.4799 17.4428 16.7609 17.8641 17.3091C18.5523 18.1734 18.4891 19.5437 17.7096 20.3308C17.0987 20.9422 16.1225 21.16 15.3149 20.8578C14.086 20.4292 13.4399 18.841 14.079 17.6956C13.0045 17.6956 11.9301 17.6956 10.8556 17.6956C11.3753 18.6442 11.0523 19.9021 10.1955 20.5416C9.55648 21.0476 8.62951 21.1389 7.89215 20.7946C7.0986 20.4292 6.56489 19.5718 6.57894 18.7005C6.57191 18.2296 6.74045 17.7658 7.02135 17.3864C6.02416 16.8242 5.63792 15.4609 6.14354 14.442C6.24888 14.2101 6.41742 14.0133 6.58596 13.8236C6.05225 13.423 5.65899 12.8397 5.49747 12.1932C4.74606 9.21369 4.0087 6.23415 3.25729 3.2546C2.97639 2.15835 1.94408 1.294 0.806429 1.23778C0.546596 1.23778 0.237605 1.19562 0.0901322 0.949664M5.35702 6.50118C5.81348 8.30718 6.2559 10.1132 6.71236 11.9192C6.89495 12.65 7.61125 13.1981 8.36266 13.1771C11.1225 13.1771 13.8824 13.1771 16.6492 13.1771C17.3725 13.1771 18.0537 12.643 18.2363 11.9403C18.6928 10.1272 19.1422 8.31421 19.5987 6.50118C14.8515 6.50118 10.1042 6.50118 5.35702 6.50118ZM8.48204 17.7729C7.99046 17.9485 7.69552 18.5318 7.85703 19.0307C7.98344 19.5297 8.52417 19.8459 9.02277 19.7475C9.61266 19.6843 10.0059 19.0237 9.83738 18.4615C9.69693 17.8923 9.02277 17.541 8.47502 17.7729M15.7152 17.7799C15.2658 17.9556 14.9779 18.4756 15.0902 18.9464C15.1675 19.4453 15.6661 19.8108 16.1647 19.7616C16.7124 19.7616 17.1689 19.2486 17.1268 18.7005C17.1338 18.0118 16.3402 17.4918 15.7152 17.7799Z" fill="#222A4A"/>
</svg>
