<svg width="18" height="22" viewBox="0 0 18 22" fill="none" xmlns="http://www.w3.org/2000/svg">
<path d="M14.9065 10.2914V20.7223C14.7818 21.7531 13.3598 21.7654 13.2226 20.7223V10.3282C9.81742 9.28509 9.54301 6.15582 10.8278 3.28425C12.5241 -0.507688 15.8046 -0.274527 17.3762 3.45606C18.5487 6.25399 18.2494 9.35872 14.9065 10.2914ZM13.8712 2.1798C12.4867 2.4866 11.6759 5.66496 11.8131 6.86758C11.9753 8.30336 13.6717 9.05193 14.9814 8.51198C16.765 7.76341 16.4657 5.72631 15.8919 4.25371C15.6175 3.55423 14.7818 1.98346 13.8712 2.1798Z" fill="#EEE1D1"/>
<path d="M4.91542 10.2914V20.7223C4.79069 21.7531 3.36873 21.7654 3.23153 20.7223V10.3282C2.02162 9.93549 0.92397 9.19919 0.425038 7.99657C-0.0489465 6.86758 -0.0614198 2.87929 0.0757863 1.55395C0.225466 0.142709 1.69731 0.130438 1.82205 1.62758C1.95925 3.27198 1.67237 5.14955 1.82205 6.79395C2.04657 9.21146 5.8135 9.30964 6.28748 7.0762C6.59931 5.6036 6.1877 3.2229 6.3249 1.62758C6.36232 1.13671 6.52447 0.559946 7.12319 0.523131C7.83417 0.474044 8.03374 1.05081 8.08364 1.62758C8.20837 3.01428 8.20837 6.35217 7.84664 7.62842C7.48492 8.90467 6.26254 9.94776 4.92789 10.2791L4.91542 10.2914Z" fill="#EEE1D1"/>
<path d="M3.88014 0.547674C4.41649 0.449501 4.84058 0.768564 4.90295 1.30852C5.09005 2.89156 4.76574 4.84275 4.90295 6.46261C4.70337 7.43207 3.36873 7.39526 3.244 6.38898C3.0569 4.80594 3.38121 2.85475 3.244 1.23489C3.30637 0.903552 3.53089 0.621304 3.88014 0.547674Z" fill="#EEE1D1"/>
</svg>
